<?xml version="1.0" standalone="no"?>
<!DOCTYPE svg PUBLIC "-//W3C//DTD SVG 20010904//EN"
 "http://www.w3.org/TR/2001/REC-SVG-20010904/DTD/svg10.dtd">
<svg version="1.0" xmlns="http://www.w3.org/2000/svg"
 width="1080.000000pt" height="1080.000000pt" viewBox="0 0 1080.000000 1080.000000"
 preserveAspectRatio="xMidYMid meet">

<g transform="translate(0.000000,1080.000000) scale(0.100000,-0.100000)"
fill="#000000" stroke="none">
<path d="M6110 9250 c-58 -9 -101 -43 -80 -64 5 -5 10 -51 10 -101 l0 -90 -61
-120 c-33 -66 -72 -147 -85 -180 -14 -33 -29 -69 -34 -80 -98 -217 -111 -286
-64 -359 74 -116 263 -195 437 -183 224 16 425 157 539 377 37 70 66 150 79
215 33 165 33 182 2 279 -21 65 -144 195 -217 230 -158 75 -345 102 -526 76z
m322 -293 c88 -31 117 -95 93 -203 -25 -108 -105 -264 -170 -328 -70 -70 -153
-96 -200 -62 -18 13 -18 15 4 67 27 66 30 72 80 182 23 49 41 90 41 92 0 2 17
39 37 82 29 60 38 90 38 131 0 59 8 63 77 39z"/>
<path d="M3555 8889 c-33 -11 -67 -27 -76 -35 -8 -8 -20 -14 -26 -14 -33 0
-215 -156 -273 -235 -87 -117 -89 -143 -16 -190 66 -42 131 -115 147 -163 6
-21 15 -41 20 -46 5 -6 9 -16 9 -24 0 -33 189 -420 231 -473 87 -110 296 -76
463 73 213 190 254 528 100 815 -78 145 -162 242 -248 287 -44 24 -60 26 -160
26 -85 -1 -125 -5 -171 -21z m199 -333 c30 -30 57 -65 61 -78 4 -13 13 -30 20
-38 6 -8 23 -42 36 -75 13 -33 27 -66 32 -73 6 -7 12 -55 15 -107 4 -88 3 -96
-22 -139 -34 -57 -70 -70 -97 -35 -10 13 -19 27 -19 30 0 4 -24 58 -54 120
-29 63 -60 130 -68 149 -9 19 -25 56 -37 82 -12 26 -21 51 -21 55 -1 15 -36
51 -69 71 l-33 20 27 18 c14 11 36 27 48 36 14 11 41 17 74 18 50 0 55 -2 107
-54z"/>
<path d="M5174 8810 c-78 -8 -205 -34 -269 -55 -22 -7 -70 -16 -107 -19 -83
-8 -126 -22 -133 -46 -8 -25 39 -113 80 -149 38 -33 58 -37 102 -20 15 6 55
15 88 20 33 6 74 14 90 19 31 10 183 37 269 48 70 10 76 25 42 110 -38 99 -47
104 -162 92z"/>
<path d="M7241 8775 c-16 -14 -35 -42 -41 -63 -6 -20 -16 -55 -23 -76 -9 -31
-51 -79 -193 -220 -267 -266 -346 -375 -330 -459 10 -52 78 -149 137 -194 30
-23 101 -68 159 -101 58 -32 132 -75 164 -95 83 -51 127 -51 193 2 47 36 83
91 83 123 0 32 -133 122 -302 204 -43 20 -78 42 -78 48 0 15 118 149 141 160
23 11 86 -19 196 -91 102 -68 120 -67 193 15 51 57 58 78 40 112 -15 29 -110
93 -197 134 -18 8 -33 19 -33 23 0 4 23 29 50 54 52 48 62 78 40 120 -6 10 -7
19 -3 19 26 -2 193 -109 339 -218 36 -27 51 -32 72 -27 31 7 137 113 145 144
10 40 -45 94 -204 199 -99 66 -158 99 -299 168 -46 22 -133 44 -176 44 -31 0
-51 -7 -73 -25z"/>
<path d="M2734 8232 c-75 -53 -154 -129 -154 -146 0 -49 85 -161 221 -291 52
-49 105 -103 119 -120 24 -28 22 -27 -60 17 -166 89 -246 132 -312 165 l-68
34 -37 -20 c-39 -20 -183 -155 -183 -171 0 -35 568 -632 663 -696 23 -16 46
-35 50 -41 4 -7 19 -13 32 -13 13 0 27 -4 30 -10 10 -16 80 -11 129 10 54 23
146 110 146 138 0 12 -47 60 -132 133 -154 131 -302 275 -273 264 11 -4 34
-13 51 -19 18 -6 38 -17 45 -23 8 -6 75 -36 149 -67 167 -69 199 -71 297 -21
73 39 153 109 153 136 0 9 -33 45 -72 80 -107 93 -345 334 -486 491 -185 207
-187 208 -224 207 -21 0 -52 -14 -84 -37z"/>
<path d="M7983 7979 c-230 -215 -543 -539 -560 -577 -17 -41 16 -215 52 -272
5 -8 19 -33 31 -56 12 -22 34 -60 48 -82 24 -39 30 -42 69 -42 38 0 187 33
270 59 18 6 66 20 107 32 89 25 183 55 583 185 136 44 133 39 125 169 -5 69
-12 96 -42 159 -21 43 -43 76 -51 76 -15 0 -117 -33 -170 -55 -16 -7 -131 -52
-255 -100 -124 -48 -238 -94 -255 -101 -52 -21 -136 -46 -141 -41 -3 3 14 21
38 40 183 150 408 348 467 411 l54 58 -6 66 c-5 72 -34 160 -70 214 -19 27
-30 33 -62 35 -39 2 -45 -3 -232 -178z"/>
<path d="M1984 7314 c-35 -51 -59 -113 -104 -264 -13 -41 -29 -96 -37 -122
-18 -60 -32 -238 -24 -308 13 -108 41 -130 162 -130 l87 0 111 -69 c89 -55
321 -176 426 -222 51 -22 113 -39 146 -39 64 0 141 66 195 166 19 35 54 142
54 164 0 17 19 87 61 225 5 16 9 54 9 82 0 42 -5 57 -22 73 -79 72 -98 82
-154 78 l-48 -3 -22 -60 c-32 -89 -44 -129 -54 -182 -5 -27 -15 -78 -22 -115
-7 -36 -16 -69 -20 -73 -3 -4 -41 12 -85 36 -117 63 -118 63 -114 107 3 42 38
177 53 205 17 33 12 76 -12 102 -25 27 -121 75 -149 75 -31 0 -73 -70 -91
-154 -22 -99 -34 -136 -46 -136 -7 0 -16 5 -19 10 -10 16 -82 50 -106 50 -11
0 -33 -9 -48 -19 l-27 -20 3 32 c4 33 66 239 88 292 7 17 20 47 29 68 9 21 16
44 16 52 0 41 -103 112 -179 122 -33 5 -40 2 -57 -23z"/>
<path d="M8705 6949 c-33 -23 -64 -47 -70 -54 -6 -8 -50 -15 -121 -18 -115 -6
-143 -10 -364 -51 -240 -46 -295 -70 -328 -145 -20 -46 -21 -162 -3 -221 24
-78 70 -193 100 -250 5 -9 12 -30 16 -49 4 -18 13 -44 21 -59 8 -15 14 -32 14
-38 0 -15 41 -51 71 -63 42 -16 173 7 199 34 l21 23 -20 63 c-35 112 -51 152
-97 245 -40 82 -51 114 -40 114 2 0 40 7 83 15 43 8 93 15 111 15 31 0 35 -4
63 -66 17 -37 42 -99 56 -138 14 -39 30 -77 35 -83 14 -18 140 -17 183 1 32
14 35 18 35 59 0 41 -23 114 -64 210 -9 21 -14 42 -11 47 4 6 25 10 48 11 71
2 88 11 106 57 l17 43 20 -28 c12 -16 23 -39 27 -53 7 -31 44 -138 56 -165 5
-11 12 -33 14 -50 3 -16 10 -43 16 -60 6 -16 13 -41 15 -55 3 -14 15 -31 28
-39 30 -18 116 -15 175 7 47 17 48 19 51 62 3 44 -1 66 -33 165 -9 28 -20 64
-25 80 -18 62 -43 123 -90 223 -75 158 -145 236 -221 248 -28 5 -44 -1 -94
-37z"/>
<path d="M1820 6256 c-140 -49 -163 -70 -172 -154 -21 -194 -27 -289 -33 -522
-7 -282 -2 -333 34 -338 32 -5 148 28 197 55 74 41 78 52 83 178 3 105 5 114
24 119 12 3 26 1 32 -4 5 -4 39 -11 75 -15 36 -3 83 -10 105 -16 83 -20 505
-62 542 -54 25 6 77 59 99 101 9 16 24 63 34 104 17 66 18 77 5 97 -21 32 -8
30 -340 52 -93 7 -192 18 -220 26 -71 19 -247 39 -278 31 -15 -3 -38 -19 -52
-34 -14 -15 -25 -22 -25 -17 0 6 9 93 20 194 14 128 17 189 9 202 -13 26 -58
24 -139 -5z"/>
<path d="M8132 5948 c-88 -30 -157 -196 -168 -401 -6 -123 6 -290 25 -324 5
-10 12 -26 15 -36 10 -31 53 -39 156 -29 53 6 112 18 133 28 35 17 37 20 37
68 0 28 -5 106 -12 173 -9 94 -9 129 1 149 11 25 14 25 84 21 88 -6 236 -24
297 -37 25 -6 95 -17 155 -26 61 -8 142 -20 182 -26 81 -12 91 -8 119 46 38
76 69 211 57 255 -6 24 -76 48 -179 61 -41 5 -80 12 -85 16 -18 11 -292 44
-454 55 -258 17 -328 19 -363 7z"/>
<path d="M2770 5160 c-19 -4 -75 -18 -125 -30 -49 -12 -130 -28 -180 -36 -49
-8 -97 -17 -105 -20 -19 -7 -165 -31 -300 -49 -293 -38 -294 -38 -311 -83 -13
-35 6 -262 24 -279 23 -24 87 -33 152 -22 33 5 92 13 132 19 40 5 80 13 90 18
10 5 41 12 68 15 28 3 66 9 85 12 34 7 33 6 -20 -29 -30 -20 -66 -40 -80 -46
-29 -13 -136 -68 -200 -104 -25 -14 -60 -32 -77 -40 l-33 -15 0 -108 c0 -121
12 -179 38 -188 20 -6 267 20 335 35 51 11 133 26 247 44 80 13 104 18 220 47
25 6 68 15 97 20 109 19 193 78 213 150 13 44 11 132 -3 189 -11 41 -15 45
-42 44 -16 -1 -73 -13 -125 -27 -195 -53 -326 -85 -375 -91 l-50 -7 60 36 c33
21 91 58 129 83 38 26 80 53 95 61 48 26 101 73 119 105 13 24 17 57 17 154 0
111 -2 125 -19 138 -22 15 -24 15 -76 4z"/>
<path d="M8126 5112 c-3 -5 -26 -12 -51 -15 -56 -8 -86 -27 -147 -88 -72 -75
-158 -262 -157 -344 0 -44 42 -159 75 -207 93 -134 232 -240 419 -319 183 -77
389 -88 511 -28 75 38 155 142 213 278 19 46 22 68 19 140 -4 119 -42 195
-147 300 -96 96 -186 156 -326 217 -22 9 -48 21 -59 26 -62 31 -336 63 -350
40z m167 -338 c107 -35 330 -151 390 -204 49 -45 57 -56 57 -88 0 -25 -8 -44
-27 -64 -23 -24 -35 -28 -81 -28 -89 0 -161 24 -346 116 -128 63 -236 150
-236 190 0 38 22 85 44 95 29 12 135 3 199 -17z"/>
<path d="M7699 4285 c-75 -27 -199 -127 -199 -160 0 -10 43 -50 240 -220 31
-27 65 -54 74 -60 10 -5 18 -19 19 -29 2 -16 -7 -21 -42 -28 -24 -4 -50 -13
-59 -20 -25 -21 -72 -100 -72 -123 0 -12 -5 -26 -11 -32 -17 -17 -14 -161 5
-215 29 -87 91 -183 153 -238 52 -46 135 -90 170 -90 12 0 33 -4 46 -9 32 -12
75 3 147 51 30 21 79 53 108 73 116 77 187 183 241 359 23 76 28 180 9 193
-20 13 -100 32 -134 33 -28 0 -57 25 -216 184 -210 209 -376 346 -417 345 -14
0 -42 -6 -62 -14z m348 -672 c80 -80 106 -97 138 -89 31 8 32 -6 2 -59 -15
-27 -37 -47 -69 -64 -47 -23 -49 -23 -96 -6 -55 20 -82 53 -107 132 -17 53
-16 70 17 156 10 27 11 27 32 10 11 -10 49 -46 83 -80z"/>
<path d="M2995 4244 c-242 -35 -536 -210 -650 -388 -94 -148 -99 -269 -16
-431 59 -117 130 -188 221 -220 60 -22 193 -30 250 -15 25 6 64 15 88 20 24 6
49 13 55 17 7 4 32 14 57 23 49 17 193 98 225 127 11 10 39 31 63 47 40 27
122 115 122 131 0 3 11 21 25 39 35 46 64 141 65 207 0 61 -33 156 -85 246
-46 77 -122 147 -189 172 -57 21 -171 34 -231 25z m188 -322 c56 -58 26 -125
-102 -225 -159 -125 -347 -217 -445 -217 -44 0 -76 37 -76 90 0 51 41 105 131
170 41 29 76 57 77 62 2 4 8 8 13 8 6 0 46 21 90 46 99 57 191 92 245 93 32 1
46 -5 67 -27z"/>
<path d="M7089 3646 c-60 -17 -136 -59 -180 -99 -19 -18 -75 -65 -125 -106
-162 -136 -174 -149 -174 -199 0 -25 5 -63 12 -85 13 -43 69 -107 94 -107 13
0 60 25 74 40 3 3 23 17 45 32 22 15 82 69 134 118 51 50 98 89 104 87 6 -2
33 -47 60 -101 l50 -97 -34 -36 c-19 -19 -71 -64 -116 -100 -46 -36 -84 -72
-85 -81 -5 -61 34 -162 71 -181 22 -12 83 2 101 24 7 8 18 15 25 15 7 0 42 27
77 60 72 65 73 65 102 -5 25 -60 43 -75 90 -75 l41 0 -46 -43 c-56 -52 -152
-124 -244 -183 -85 -55 -100 -82 -79 -143 16 -48 54 -110 78 -130 33 -27 105
11 298 157 96 73 268 241 268 263 0 6 9 22 20 36 26 33 41 88 33 124 -4 22
-24 43 -82 83 -45 33 -81 66 -88 83 -45 113 -98 230 -109 243 -6 8 -14 22 -15
30 -7 27 -133 250 -169 297 -19 26 -46 54 -60 64 -33 24 -114 31 -171 15z"/>
<path d="M3616 3609 c-33 -5 -64 -13 -70 -19 -5 -5 -17 -10 -26 -10 -9 0 -25
-8 -34 -19 -15 -16 -16 -28 -6 -106 6 -49 15 -96 20 -106 6 -10 10 -47 10 -82
l0 -65 -47 -5 c-82 -8 -130 -25 -194 -69 -34 -23 -76 -63 -95 -88 -18 -25 -43
-58 -55 -73 -55 -72 -64 -172 -22 -245 76 -133 141 -209 208 -249 61 -36 168
-73 210 -73 18 0 54 -7 81 -15 51 -16 151 -20 170 -7 16 10 32 67 39 142 6 55
12 71 39 100 88 94 278 329 349 432 52 74 58 109 31 173 -24 59 -88 138 -127
159 l-35 20 -25 -30 c-13 -16 -62 -79 -108 -140 -102 -134 -120 -156 -140
-171 -14 -11 -15 -7 -8 40 5 28 13 70 18 92 6 22 11 59 11 82 0 24 5 74 12
113 10 55 9 83 -1 132 -7 35 -18 68 -24 75 -17 16 -112 23 -181 12z m59 -639
c23 -9 25 -12 14 -32 -7 -13 -39 -51 -73 -86 -73 -75 -82 -97 -62 -146 l15
-36 -43 0 c-84 0 -164 101 -135 173 39 100 185 165 284 127z"/>
<path d="M6293 3183 c-47 -16 -56 -40 -29 -78 7 -11 16 -46 19 -77 3 -32 10
-72 16 -90 19 -60 43 -184 40 -201 -3 -12 -23 7 -69 64 -83 103 -231 246 -273
263 -69 29 -74 28 -111 -5 -69 -60 -134 -201 -119 -258 2 -10 29 -29 58 -44
30 -15 95 -52 145 -83 l91 -56 -36 -48 c-51 -69 -78 -159 -72 -235 12 -146 51
-250 111 -303 34 -30 49 -35 146 -47 206 -26 246 -19 403 72 38 22 167 136
202 179 19 23 35 52 35 63 0 13 -26 47 -65 85 l-65 64 -11 82 c-5 46 -14 91
-20 101 -5 10 -9 33 -9 51 -1 18 -12 83 -26 143 -14 61 -31 137 -38 170 -27
130 -57 175 -116 175 -15 0 -41 7 -56 15 -36 19 -96 18 -151 -2z m81 -595 c3
-13 8 -52 11 -88 12 -123 37 -170 92 -170 13 0 23 -4 23 -8 0 -16 -56 -61 -97
-77 -52 -21 -95 -9 -139 36 -27 28 -29 36 -29 103 0 86 30 156 84 199 42 33
49 33 55 5z"/>
<path d="M4775 3108 c-13 -31 -31 -78 -91 -238 -14 -36 -34 -85 -45 -109 l-20
-44 -121 7 c-67 4 -140 14 -162 22 -23 7 -48 14 -57 14 -39 0 -79 -86 -79
-168 0 -44 26 -79 65 -87 29 -6 143 -18 193 -20 24 -2 46 -5 49 -8 3 -4 -2
-25 -11 -49 -19 -46 -15 -97 10 -135 14 -23 14 -23 -48 -23 -73 0 -216 21
-303 44 -72 19 -149 21 -163 3 -6 -7 -17 -46 -23 -86 -10 -62 -10 -77 4 -105
15 -32 67 -66 102 -66 9 0 37 -6 63 -14 89 -27 227 -41 397 -41 257 0 275 12
255 167 l-10 85 36 79 c64 141 108 239 124 279 12 30 49 115 70 160 47 103 47
111 15 173 -35 68 -113 154 -160 176 -51 25 -73 21 -90 -16z"/>
</g>
</svg>
