<?xml version="1.0" standalone="no"?>
<!DOCTYPE svg PUBLIC "-//W3C//DTD SVG 20010904//EN"
 "http://www.w3.org/TR/2001/REC-SVG-20010904/DTD/svg10.dtd">
<svg version="1.0" xmlns="http://www.w3.org/2000/svg"
 width="1080.000000pt" height="1080.000000pt" viewBox="0 0 1080.000000 1080.000000"
 preserveAspectRatio="xMidYMid meet">

<g transform="translate(0.000000,1080.000000) scale(0.100000,-0.100000)"
fill="#27282a" stroke="none">
<path d="M6340 10181 c-47 -15 -87 -40 -92 -58 -3 -11 2 -41 10 -68 30 -101
11 -215 -56 -335 -20 -36 -44 -81 -53 -100 -43 -90 -99 -211 -99 -216 0 -3 -7
-20 -15 -37 -8 -18 -39 -94 -70 -169 -47 -118 -55 -147 -55 -203 0 -79 19
-120 85 -188 130 -131 322 -187 575 -167 102 8 143 21 262 81 68 33 200 131
235 173 86 102 134 168 149 206 3 8 9 22 14 30 22 36 48 101 69 170 12 41 30
98 39 125 12 37 17 86 17 185 0 128 -2 138 -28 190 -27 56 -149 191 -219 243
-43 33 -207 102 -275 116 -26 6 -68 15 -93 20 -52 12 -363 13 -400 2z m431
-386 c25 -7 58 -21 74 -31 31 -21 75 -105 75 -146 0 -28 -34 -166 -50 -203
-120 -283 -241 -415 -378 -415 -77 0 -96 13 -87 58 4 21 10 42 15 47 4 6 28
57 53 115 25 58 62 141 82 185 121 260 126 276 123 343 -3 62 3 75 32 65 8 -3
36 -11 61 -18z"/>
<path d="M3085 9730 c-11 -5 -33 -9 -50 -9 -51 -1 -243 -107 -345 -190 -138
-112 -270 -279 -287 -361 -6 -33 8 -49 96 -104 36 -21 82 -63 107 -95 51 -62
46 -54 104 -206 47 -123 152 -351 220 -475 4 -8 19 -37 32 -63 35 -72 82 -123
133 -142 52 -20 226 -18 247 3 7 7 20 12 30 12 29 0 116 47 204 111 86 63 173
167 214 256 12 26 27 56 32 67 9 18 31 107 48 196 11 58 12 204 1 255 -5 22
-14 65 -20 95 -13 65 -29 106 -83 215 -119 240 -255 388 -396 431 -52 15 -254
18 -287 4z m83 -396 c65 -27 136 -109 199 -232 60 -116 113 -285 113 -364 0
-65 -36 -152 -77 -189 -55 -47 -71 -38 -123 67 -59 120 -120 250 -120 257 0 4
-15 39 -34 79 -19 40 -48 104 -66 143 -36 80 -62 112 -108 132 -38 16 -35 24
21 60 104 66 133 73 195 47z"/>
<path d="M5155 9609 c-27 -5 -97 -18 -155 -29 -58 -11 -125 -24 -150 -29 -144
-28 -250 -51 -274 -61 -15 -5 -45 -10 -66 -10 -47 0 -65 -25 -57 -75 7 -40 94
-165 128 -183 27 -15 99 -9 169 13 25 7 74 18 110 24 131 22 219 39 228 45 5
3 51 10 103 16 52 6 111 16 132 21 34 9 37 12 37 47 0 64 -62 202 -100 222
-21 11 -34 11 -105 -1z"/>
<path d="M7855 9570 c-12 -4 -27 -15 -35 -25 -17 -20 -58 -142 -67 -197 -5
-32 -16 -48 -62 -86 -154 -129 -429 -419 -542 -572 -117 -159 -106 -261 44
-410 81 -80 128 -114 272 -193 55 -30 140 -80 189 -111 139 -88 164 -90 261
-22 77 55 114 107 115 163 0 37 -4 45 -42 75 -57 45 -152 108 -163 108 -5 0
-16 6 -24 14 -18 15 -105 60 -203 104 -38 17 -68 36 -68 42 0 15 200 220 214
220 20 0 168 -81 258 -141 49 -32 98 -59 109 -59 34 0 71 25 132 88 52 55 57
65 57 104 0 35 -6 49 -27 70 -40 37 -118 89 -198 132 -38 21 -74 42 -80 48 -6
6 14 31 58 72 57 54 67 68 67 97 0 19 -9 48 -20 66 l-19 32 22 -9 c67 -26 218
-124 410 -265 48 -36 98 -65 111 -65 49 0 198 142 211 201 9 42 -25 85 -141
172 -95 72 -98 74 -281 182 -218 131 -337 175 -462 174 -42 0 -85 -4 -96 -9z"/>
<path d="M1952 8866 c-72 -48 -194 -140 -214 -163 -18 -20 -21 -33 -19 -78 2
-56 81 -155 278 -352 106 -106 190 -193 187 -193 -7 0 -146 73 -359 187 -55
29 -133 70 -174 90 l-73 37 -47 -25 c-55 -29 -241 -207 -241 -231 0 -20 125
-173 250 -303 135 -142 493 -500 570 -571 195 -178 318 -187 485 -32 72 67 91
98 75 127 -5 10 -42 44 -82 77 -87 69 -399 347 -447 398 -42 43 -34 44 39 6
83 -43 129 -64 195 -89 33 -13 67 -27 76 -31 9 -5 60 -27 115 -50 86 -37 105
-42 148 -36 27 3 54 10 60 16 5 5 17 10 26 10 8 0 39 16 69 35 29 19 57 35 62
35 15 0 129 117 129 133 0 9 -46 57 -102 109 -147 133 -428 414 -548 548 -57
63 -140 155 -184 205 -177 196 -183 200 -274 141z"/>
<path d="M9003 8678 c-43 -41 -112 -105 -153 -143 -166 -152 -749 -747 -766
-783 -15 -32 -16 -46 -6 -107 22 -137 40 -194 82 -267 22 -39 30 -54 44 -83 8
-16 32 -55 54 -85 l39 -55 74 3 c41 1 94 9 119 16 25 8 65 19 90 25 67 15 215
56 285 80 17 5 64 19 105 31 41 11 88 28 103 35 16 8 36 15 45 15 17 0 103 27
217 67 39 13 88 29 110 34 22 6 72 21 110 35 39 14 86 29 105 34 70 18 111 40
121 68 15 37 4 192 -15 231 -9 16 -16 39 -16 51 0 26 -71 161 -88 168 -8 2
-32 -1 -55 -9 -58 -18 -327 -117 -352 -129 -11 -5 -63 -26 -115 -46 -52 -20
-114 -45 -137 -55 -23 -11 -45 -19 -48 -19 -7 0 -55 -20 -110 -45 -16 -8 -43
-17 -60 -21 -16 -4 -34 -10 -40 -14 -18 -13 -166 -61 -177 -58 -6 2 12 22 40
45 28 22 77 63 109 91 32 28 76 65 98 84 120 100 360 316 423 381 l72 75 0 63
c-1 35 -7 82 -15 104 -8 22 -15 46 -15 53 0 22 -82 180 -95 186 -7 2 -33 7
-58 11 l-45 7 -79 -74z"/>
<path d="M944 7656 c-35 -25 -134 -250 -134 -304 0 -10 -4 -22 -9 -27 -6 -6
-14 -28 -20 -50 -19 -75 -42 -160 -52 -190 -15 -44 -29 -268 -22 -360 4 -53
12 -91 25 -113 34 -56 50 -62 179 -62 l118 0 73 -47 c90 -58 96 -62 181 -112
81 -48 359 -186 477 -237 104 -44 189 -55 242 -30 54 26 132 107 172 179 38
68 86 196 86 230 0 11 7 43 15 71 8 28 24 89 36 136 12 47 28 102 35 123 8 20
14 62 14 92 0 51 -2 56 -49 103 -57 57 -117 89 -183 98 -60 8 -79 -12 -114
-125 -14 -47 -33 -105 -40 -129 -8 -23 -14 -52 -14 -63 0 -10 -7 -45 -15 -77
-8 -31 -17 -83 -21 -115 -4 -39 -11 -60 -21 -64 -16 -6 -235 100 -254 124 -19
22 0 155 37 260 32 92 42 164 26 190 -4 6 -24 23 -45 37 -88 60 -162 85 -195
67 -23 -12 -77 -118 -92 -178 -22 -94 -28 -120 -34 -155 -4 -21 -11 -38 -15
-38 -5 0 -45 20 -89 46 -78 44 -81 45 -114 31 -19 -8 -44 -27 -56 -43 -15 -21
-21 -24 -22 -12 0 32 50 220 75 283 7 17 16 41 20 55 3 14 10 34 15 45 15 32
41 106 56 160 23 80 -3 118 -121 177 -67 34 -124 43 -151 24z"/>
<path d="M9828 7187 c-53 -31 -119 -77 -148 -103 -23 -20 -42 -23 -201 -33
-96 -6 -188 -15 -205 -20 -16 -5 -57 -12 -92 -15 -64 -6 -259 -43 -274 -52 -4
-3 -36 -10 -70 -15 -74 -12 -154 -48 -191 -87 -37 -39 -67 -128 -67 -202 0
-60 34 -216 51 -234 5 -6 9 -19 9 -29 0 -10 7 -31 15 -45 21 -39 56 -126 105
-257 66 -179 91 -205 205 -205 119 0 215 43 215 95 0 48 -98 305 -168 438 -60
114 -57 119 69 129 51 4 106 12 122 18 40 14 73 -5 99 -55 11 -22 25 -49 31
-59 5 -11 13 -31 18 -45 42 -136 78 -217 100 -229 36 -19 194 -6 237 20 30 19
32 23 32 79 0 63 -22 138 -76 256 -18 40 -30 74 -26 77 4 2 44 7 89 11 76 6
85 10 109 37 14 17 28 44 31 61 l6 30 18 -24 c10 -13 19 -30 19 -37 0 -8 6
-26 14 -40 19 -38 56 -135 56 -149 0 -6 5 -24 12 -40 6 -15 17 -50 24 -78 44
-176 62 -220 97 -231 12 -4 52 -6 88 -6 122 4 209 46 209 101 0 56 -68 293
-130 451 -12 30 -27 71 -35 90 -45 123 -163 311 -226 361 -31 25 -107 59 -128
59 -3 0 -23 -10 -43 -23z"/>
<path d="M740 6254 c-95 -31 -198 -80 -227 -106 -27 -25 -31 -45 -44 -208 -5
-69 -14 -177 -19 -240 -11 -135 -15 -747 -5 -772 10 -25 54 -30 110 -13 28 8
59 15 70 15 27 0 153 64 183 93 42 39 52 80 52 216 0 147 -6 140 110 115 78
-17 244 -42 348 -54 43 -5 104 -13 137 -19 33 -5 142 -15 241 -21 213 -14 221
-12 277 72 63 96 82 153 82 247 l0 84 -35 18 c-26 13 -80 20 -215 28 -222 14
-364 28 -430 41 -28 6 -89 15 -135 20 -47 5 -112 14 -145 20 -33 6 -84 10
-114 7 -47 -3 -59 -9 -89 -41 l-34 -38 7 109 c9 134 19 227 35 316 14 82 9
110 -25 125 -35 16 -49 15 -135 -14z"/>
<path d="M8963 5807 c-41 -47 -98 -149 -124 -223 -55 -160 -55 -613 0 -736 19
-41 27 -48 71 -63 27 -9 54 -14 60 -10 6 4 51 10 99 15 65 6 105 16 147 37
l59 28 3 55 c2 30 -2 107 -8 170 -24 245 -24 238 -6 265 16 24 20 25 122 25
58 0 113 -4 123 -9 10 -6 74 -17 142 -26 217 -29 321 -44 444 -65 207 -36 203
-36 231 -9 56 53 106 197 121 346 4 46 2 53 -19 66 -44 29 -273 81 -422 97
-44 5 -117 13 -161 19 -254 34 -375 44 -600 48 l-251 6 -31 -36z"/>
<path d="M1940 4793 c-52 -13 -126 -31 -165 -38 -38 -8 -101 -21 -140 -30 -89
-20 -263 -52 -380 -70 -49 -7 -124 -18 -165 -25 -214 -33 -262 -40 -339 -49
-56 -6 -92 -16 -110 -29 l-26 -19 0 -174 c1 -222 4 -230 102 -248 48 -8 78 -8
103 -1 19 5 57 10 85 10 27 0 70 5 95 11 25 6 77 17 115 24 39 8 113 23 165
34 52 12 99 21 105 21 21 0 -18 -23 -205 -120 -311 -163 -371 -197 -387 -218
-15 -19 -16 -116 -2 -187 5 -27 14 -74 19 -103 12 -77 32 -95 95 -89 201 20
368 45 465 69 25 6 74 14 110 18 78 9 260 44 435 85 33 8 76 17 95 21 149 27
247 84 293 169 19 34 22 55 21 150 -1 90 -5 119 -22 159 -25 54 -14 52 -137
18 -140 -39 -312 -85 -395 -104 -116 -27 -250 -56 -250 -53 0 3 95 61 140 84
25 13 61 36 80 50 36 27 102 71 205 136 90 58 102 72 126 147 18 59 20 87 17
191 -4 118 -16 171 -42 180 -6 2 -54 -7 -106 -20z"/>
<path d="M8985 4731 c-38 -9 -79 -21 -90 -27 -11 -6 -33 -14 -48 -18 -41 -10
-147 -122 -187 -200 -19 -36 -43 -81 -52 -99 -39 -75 -62 -162 -62 -244 -1
-53 3 -86 12 -94 6 -7 12 -22 12 -34 0 -40 85 -179 159 -259 197 -212 599
-396 866 -396 160 0 301 53 381 144 78 88 152 225 193 357 23 75 5 213 -42
304 -109 217 -377 422 -682 523 -193 64 -319 76 -460 43z m200 -431 c91 -29
147 -49 180 -65 17 -7 56 -25 89 -39 178 -79 366 -222 366 -280 0 -44 -36
-102 -74 -120 -44 -21 -95 -20 -181 3 -231 63 -477 186 -592 296 -60 58 -63
62 -63 109 0 41 5 53 34 82 33 33 37 34 108 34 45 0 96 -8 133 -20z"/>
<path d="M8465 3652 c-114 -39 -240 -132 -264 -196 l-15 -39 41 -36 c22 -20
124 -110 227 -200 102 -90 186 -167 186 -171 0 -4 -27 -10 -60 -12 -52 -4 -65
-9 -96 -39 -83 -78 -134 -257 -114 -398 10 -71 57 -201 84 -230 9 -10 16 -23
16 -30 0 -6 36 -49 80 -95 75 -78 174 -146 213 -146 8 0 28 -7 43 -15 39 -20
157 -20 174 0 7 8 17 15 23 15 9 0 47 25 216 141 128 88 185 159 257 324 38
89 94 296 94 348 -1 52 -57 80 -190 93 -66 6 -74 10 -103 43 -152 176 -602
589 -699 641 -44 24 -48 24 -113 2z m442 -893 l122 -122 47 6 46 5 -6 -31 c-3
-17 -21 -49 -39 -73 -81 -108 -205 -113 -291 -12 -48 55 -60 109 -53 226 5 75
11 100 24 110 9 6 19 12 22 12 3 0 60 -55 128 -121z"/>
<path d="M2278 3595 c-3 -4 -39 -11 -80 -16 -247 -31 -593 -233 -772 -452 -40
-49 -106 -177 -106 -205 0 -11 -7 -36 -15 -55 -19 -45 -19 -110 0 -162 8 -22
15 -46 15 -54 0 -20 73 -171 112 -233 37 -57 108 -129 154 -157 16 -9 59 -27
97 -39 84 -27 278 -31 364 -7 29 8 79 22 111 31 217 61 500 248 626 414 152
200 172 380 64 594 -126 252 -236 328 -493 343 -39 3 -73 1 -77 -2z m193 -400
c35 -19 69 -70 69 -104 0 -62 -57 -134 -174 -220 -232 -171 -457 -281 -575
-281 -43 0 -52 4 -80 35 -71 81 -23 188 134 299 206 146 339 220 469 261 86
28 118 30 157 10z"/>
<path d="M7645 2805 c-105 -33 -199 -94 -340 -221 -49 -44 -112 -97 -139 -118
-109 -83 -135 -108 -151 -148 -15 -39 -15 -46 2 -107 34 -126 94 -198 156
-187 49 10 216 144 360 290 62 62 82 78 94 70 20 -13 132 -233 133 -261 0 -25
-68 -89 -207 -194 l-93 -70 0 -60 c0 -63 19 -113 67 -176 49 -66 124 -40 283
98 51 44 97 78 102 77 5 -2 23 -35 40 -73 39 -91 58 -108 119 -103 40 3 46 1
39 -13 -11 -19 -105 -101 -169 -146 -74 -53 -151 -106 -226 -157 -82 -56 -85
-59 -85 -109 0 -71 90 -232 137 -243 29 -8 136 44 217 105 34 25 79 58 101 73
22 15 51 38 65 50 14 13 37 31 52 40 44 29 208 189 255 250 66 87 103 167 103
227 0 45 -4 54 -37 87 -21 20 -67 55 -102 77 -55 37 -67 50 -92 105 -16 35
-29 68 -29 73 0 8 -87 197 -111 242 -6 10 -33 62 -60 115 -53 103 -58 112
-101 180 -16 24 -28 45 -28 47 0 3 -15 29 -34 58 -39 61 -85 103 -133 124 -40
16 -134 15 -188 -2z"/>
<path d="M3100 2763 c-69 -10 -184 -50 -206 -70 -28 -26 -30 -54 -10 -132 22
-84 56 -305 50 -327 -4 -16 -15 -19 -72 -20 -145 -1 -263 -70 -388 -226 -103
-128 -144 -234 -123 -320 13 -54 140 -255 214 -336 77 -85 262 -164 430 -182
39 -4 102 -13 140 -19 142 -24 164 -6 174 146 4 59 11 116 17 125 5 9 45 56
89 104 80 87 136 154 246 294 32 41 62 80 67 85 47 57 151 207 161 231 10 26
10 40 -2 82 -43 142 -174 297 -237 277 -10 -3 -35 -29 -54 -58 -61 -89 -278
-368 -302 -388 -19 -15 -18 -8 11 151 31 174 35 208 35 353 0 177 -10 211 -69
227 -35 10 -120 11 -171 3z m72 -849 c19 -12 3 -39 -72 -117 -44 -46 -90 -97
-102 -113 -29 -36 -31 -103 -5 -131 25 -29 22 -33 -28 -33 -125 0 -224 113
-195 222 17 61 97 138 170 160 30 9 62 19 70 22 16 6 150 -3 162 -10z"/>
<path d="M6590 2195 c-32 -12 -35 -16 -38 -59 -2 -25 2 -62 8 -83 36 -117 97
-400 99 -456 1 -10 -43 35 -98 100 -121 145 -258 280 -331 327 -42 28 -65 36
-99 36 -41 0 -49 -4 -96 -55 -66 -70 -144 -227 -145 -291 0 -18 37 -64 52 -64
10 0 259 -140 306 -172 l42 -29 -37 -47 c-47 -59 -57 -76 -83 -149 -25 -71
-27 -215 -5 -289 8 -27 15 -59 15 -71 0 -80 98 -220 178 -254 53 -23 304 -44
405 -34 71 7 161 41 214 81 17 13 35 24 39 24 4 0 28 17 53 37 25 20 53 42 61
48 49 37 190 188 196 209 10 41 -5 66 -88 146 l-80 77 -9 81 c-5 44 -13 92
-19 107 -5 14 -10 40 -10 56 0 32 -31 198 -54 289 -8 30 -24 100 -36 155 -29
132 -49 196 -69 218 -53 61 -272 98 -371 62z m133 -925 c7 -101 26 -163 54
-178 10 -5 35 -12 56 -16 20 -4 37 -11 37 -15 0 -19 -68 -78 -108 -94 -88 -35
-161 -16 -218 59 -74 97 -23 288 105 387 l36 28 16 -38 c9 -21 19 -81 22 -133z"/>
<path d="M4622 2132 c-11 -9 -30 -46 -42 -82 -12 -36 -31 -83 -41 -106 -11
-22 -19 -46 -19 -52 0 -7 -4 -20 -10 -30 -11 -19 -43 -100 -85 -211 l-28 -74
-102 6 c-103 6 -250 28 -316 48 -31 10 -42 9 -68 -7 -45 -26 -61 -77 -61 -189
l0 -95 49 -24 c53 -27 170 -46 287 -46 81 0 82 -1 43 -77 -26 -50 -24 -91 6
-147 14 -26 25 -49 25 -52 0 -8 -96 -3 -220 11 -119 14 -253 40 -330 64 -57
18 -117 14 -138 -9 -34 -36 -54 -204 -32 -267 12 -34 76 -70 150 -83 25 -5 63
-13 85 -19 166 -42 520 -64 704 -42 80 9 99 14 120 36 28 28 30 44 20 230 l-4
90 46 95 c65 133 99 207 99 217 0 4 14 37 31 73 58 123 69 147 69 158 0 6 7
23 15 39 40 78 78 172 82 204 11 76 -127 268 -230 320 -71 37 -84 39 -105 21z"/>
</g>
</svg>
